PathFileType	4	(X/Y/Z)	Patient4_TMGait_0pt6_02_right_27.trc.trc
DataRate	CameraRate	NumFrames	NumMarkers	Units	OrigDataRate	OrigDataStartFrame	OrigNumFrames
82.840236686390	82.840236686390	5	33	mm	82.840236686390	106	       141
Frame#	Time	Sacral			L.Shoulder			Chest			R.Shoulder			Neck			R.ASIS			L.ASIS			R.Thigh.Superior			R.Thigh.Lateral			R.Thigh.Inferior			R.Patella			L.Thigh.Superior			L.Thigh.Lateral			L.Thigh.Inferior			L.Patella			L.Shank.Superior			L.Shank.Lateral			L.Shank.Inferior			R.Shank.Superior			R.Shank.Lateral			R.Shank.Inferior			R.Heel			R.Midfoot.Superior			R.Midfoot.Lateral			R.Toe			L.Heel			L.Midfoot.Lateral			L.Midfoot.Superior			L.Toe			L.Elbow			L.Wrist			R.Elbow			R.Wrist			
		X1	Y1	Z1	X2	Y2	Z2	X3	Y3	Z3	X4	Y4	Z4	X5	Y5	Z5	X6	Y6	Z6	X7	Y7	Z7	X8	Y8	Z8	X9	Y9	Z9	X10	Y10	Z10	X11	Y11	Z11	X12	Y12	Z12	X13	Y13	Z13	X14	Y14	Z14	X15	Y15	Z15	X16	Y16	Z16	X17	Y17	Z17	X18	Y18	Z18	X19	Y19	Z19	X20	Y20	Z20	X21	Y21	Z21	X22	Y22	Z22	X23	Y23	Z23	X24	Y24	Z24	X25	Y25	Z25	X26	Y26	Z26	X27	Y27	Z27	X28	Y28	Z28	X29	Y29	Z29	X30	Y30	Z30	X31	Y31	Z31	X32	Y32	Z32	X33	Y33	Z33	

106	33.707500000000	868.703235133410	1020.905778559796	411.288725051759	1095.843127978527	1429.886670282557	229.335188315130	1182.258991824434	1352.717450824866	395.630833867856	1098.326194166954	1440.045815472092	562.161159905779	1094.204125707318	1493.136159761336	379.058294281285	1086.893725687398	947.781074074830	537.000381835603	1085.403722633612	957.889944264610	263.214898413654	1176.883388525238	791.677708679634	508.746920260965	1146.866530368171	670.005822536314	584.067743307714	1239.165337595159	637.098242261567	504.492396526773	1268.988289434142	527.025080748583	527.883308742560	1113.097659061940	743.334550020580	294.119407090001	1012.816177102151	637.512319486256	235.172235060747	1086.766649263708	551.862671946341	300.197281981496	1079.061520782822	483.389810352426	310.973674671300	1049.514425038006	415.056323298407	303.014872497859	953.665993322708	305.256025227515	253.006464879061	996.918798063032	192.571320501182	327.019901368322	1202.691596640010	444.900168835591	534.365982464559	1087.509516273996	387.508957656198	591.875563572541	1090.596308971216	277.834702505794	543.078052383670	901.990218662950	186.666448135140	510.318607974441	1075.745155828518	152.178412135280	554.271370499654	967.062706429034	137.781451096714	586.508428289784	1155.171178040746	52.028656787213	586.404427567770	862.898753601745	40.101070185034	373.853570567992	935.621427776668	35.364353616509	292.281776397487	1019.500613938759	96.042132002283	317.098540758217	1147.749058938210	42.636660100312	287.825219606692	1023.974080160077	1094.765945861556	87.921073203832	1188.590351417451	892.631916405171	69.858239751919	984.316879274468	1114.544826064596	688.024588741066	983.670834428191	852.823404189905	708.113088426723	
107	33.719571428571	868.520427904102	1020.657299473394	411.015172382488	1097.640775599925	1429.418987104747	230.284642649535	1182.901264939470	1352.063604254602	397.080569766613	1098.087899690484	1439.554237317363	563.019514869391	1095.184301156476	1492.638785909382	379.993461603710	1086.213180645119	947.532187616055	537.886495311189	1085.816647143994	957.499244792027	264.047357731519	1177.072330019160	792.934903742448	509.670105343032	1148.196169345183	671.147043761644	585.211065955655	1240.472818222688	638.847596206195	505.516901577105	1272.091066839812	530.398475759351	529.204006474495	1111.479685979713	742.212845314471	295.062365455369	1010.259783809589	637.269315516418	235.343526478827	1082.905332712375	550.849307160125	300.597763248044	1074.433793715893	482.552699577882	311.322551480046	1044.630811471737	414.463496252097	303.237753049337	948.204220259426	305.283147141985	253.005761589775	990.449986269330	192.298048584078	327.074298622568	1209.234676001026	446.562773021596	536.240481268328	1097.430885479245	383.895801540453	594.656248456774	1105.570360836347	274.271895044030	546.177086357683	921.468138856576	174.376573987551	514.724505396200	1096.798414546402	147.716222992779	557.968572562857	989.050526937058	128.642577061953	590.816598973886	1180.749383951745	51.099546892255	589.963827201079	855.671526080043	40.220217206578	373.759861314858	928.375651939014	35.381604226598	292.244510300848	1012.337216381137	95.987138418831	317.086570287224	1140.537288727920	42.380837555628	287.808331081191	1026.266474995622	1094.937904868146	87.467030965567	1196.156483697596	897.410380187542	70.687151126402	978.491603527711	1116.756936258420	689.282624888275	970.697463349454	855.605201481257	712.144927546722	
108	33.731642857143	868.409029316168	1020.359384250076	410.927451830772	1099.367162564239	1428.836975362248	231.347249428952	1183.586886752509	1351.326561348186	398.591761898526	1097.994537056925	1439.022123342476	563.949878786412	1096.241085801475	1492.049593693664	381.007391101923	1085.628818100970	947.138199997269	538.895992590002	1086.230087817246	957.077576047761	264.977192252346	1176.952564218885	793.693502838761	510.718686702036	1148.850641368719	671.799072108833	586.481535638415	1241.090866945299	639.929129737081	506.762913880731	1274.319099901730	533.286413455440	530.678538176909	1109.895548435706	741.062653052073	295.958045422426	1007.662646477429	637.020560753475	235.588869098383	1079.025411428302	549.831608383362	300.986811728895	1069.797610050766	481.731466746533	311.673893897345	1039.731395801359	413.879173196413	303.472558233157	942.710471292775	305.325292995972	253.036585036673	983.984478362815	192.037879324964	327.134595288458	1215.139726730305	447.914580038709	538.261988156706	1107.241869806770	379.899843328807	597.691525417778	1120.704687638262	270.614256330748	549.487401157172	941.890570439816	161.795978515690	519.400790433587	1118.482005301589	143.436775957051	561.947919581248	1011.941987360912	119.464086952431	595.336241671752	1206.940984150547	50.677428439527	593.642033494263	848.458242303500	40.350303986214	373.664284404007	921.133124216734	35.405674779655	292.209502996474	1005.176578259999	95.937721810377	317.070545900892	1133.317641588362	42.139933160325	287.787071368072	1028.531703506244	1094.920646445738	87.294751916580	1203.491312610693	902.097171412277	71.903763835395	972.960982251775	1119.068694497792	690.750920989207	959.145098410982	858.588693524935	715.829792469726	
109	33.743714285714	868.394983105526	1020.021138122631	411.041555058985	1101.010732334873	1428.165909474253	232.526091916336	1184.320230531752	1350.524254217710	400.156049553293	1098.074186750251	1438.456896703258	564.967969170163	1097.371480816726	1491.382870531664	382.107608952627	1085.168936411033	946.611514061823	540.025304066444	1086.651461518701	956.632633153864	266.000344455118	1176.527168919810	793.920431911733	511.891392430325	1148.802566480366	671.928851992301	587.884246144228	1240.998636451971	640.300402978672	508.230886961569	1275.638772626289	535.637721774144	532.279561389957	1108.327935673559	739.885961234847	296.817343897806	1005.004867705413	636.777680471620	235.918660342207	1075.101539548515	548.821551884934	301.376077287767	1065.126995086386	480.935525341333	312.035475743021	1034.788406021198	413.318539333132	303.726659967795	937.163715046918	305.392149161313	253.107529390803	977.511422792309	191.800657983558	327.206591842994	1220.348938739269	448.950528159606	540.402118079467	1116.896246692402	375.592776339025	600.960590353010	1135.889351288290	266.977740918670	552.958268225030	963.176225043653	149.142485846611	524.299488919891	1140.660703368878	139.506659914079	566.144345317826	1035.626267892202	110.435734344165	599.993870388070	1233.550926526141	50.922072770416	597.323169013632	841.252704679835	40.497283547044	373.568681337642	913.893023626058	35.441053651190	292.178633918731	998.018241616536	95.895892891740	317.050754511712	1126.087572010611	41.915628346303	287.761238732802	1030.786428706592	1094.724209544283	87.423748126638	1210.566786888448	906.649623779761	73.498151194883	967.754385162400	1121.454351667181	692.393070855289	948.973937694909	861.644226565281	719.198426886738	
110	33.755785714286	868.505764680371	1019.639872951094	411.372677714900	1102.567303667892	1427.426960561650	233.823536483547	1185.104647841227	1349.669894958596	401.768315890526	1098.347015458604	1437.861859101764	566.088726746725	1098.566070116539	1490.648936839736	383.301599758113	1084.865105486681	945.959957695077	541.272046522875	1087.093847997383	956.168125646710	267.114497658449	1175.815622759928	793.584201798176	513.198839984303	1148.049473693277	671.512102053382	589.432598471239	1240.195143926267	639.928851400818	509.918871297041	1276.035120469273	537.405885138964	533.980673129170	1106.756524085339	738.684730932263	297.662047074243	1002.268200814680	636.551029618655	236.338703045043	1071.106702993736	547.829867649974	301.778414619522	1060.396109182780	480.172390179797	312.411361937313	1029.773149173865	412.794310690511	304.005645399091	931.541652012897	305.491764868836	253.225481348310	971.020104952484	191.594622337511	327.294196695042	1224.813858235376	449.660387827566	542.634141210502	1126.321321970026	371.041983237842	604.424022328266	1150.981130483147	263.460240938649	556.526219493716	985.174601873611	136.620113399135	529.339470429783	1163.138249331848	136.061028118590	570.470895655461	1059.920200916300	101.728260490338	604.696437008524	1260.329372879022	51.956260110713	600.899644186652	834.049307183071	40.665589315583	373.476155748662	906.654573546279	35.492131440072	292.153881960254	990.861790728185	95.863455593147	317.028417904434	1118.845444721220	41.708780141390	287.731228615662	1033.036314312601	1094.360690859289	87.870184598966	1217.352107675115	911.023702378035	75.456541108577	962.909437025316	1123.876088629224	694.171144333690	940.136177955122	864.661216974872	722.280401183375	
